HIERARCHY
ROOT Hips
{
    OFFSET 0.000000 0.000000 0.000000
    CHANNELS 6 Xposition Yposition Zposition Zrotation Xrotation Yrotation
        JOINT Chest
        {
            OFFSET -0.000000 34.099812 -0.000000
            CHANNELS 3 Zrotation Xrotation Yrotation
            JOINT Neck
            {
                OFFSET -0.000000 25.785578 0.000000
                CHANNELS 3 Zrotation Xrotation Yrotation
                JOINT Head
                {
                    OFFSET -0.000000 11.061110 0.000000
                    CHANNELS 3 Zrotation Xrotation Yrotation
                    End Site
                    {
                        OFFSET -0.000000 17.094444 0.000000
                    }
                }
            }
            JOINT LeftCollar
            {
                OFFSET -0.000000 25.785578 0.000000
                CHANNELS 3 Zrotation Xrotation Yrotation
                JOINT LeftShoulder
                {
                    OFFSET 19.000000 -0.000000 0.000000
                    CHANNELS 3 Zrotation Xrotation Yrotation
                    JOINT LeftElbow
                    {
                        OFFSET 29.227484 0.000000 0.000000
                        CHANNELS 3 Zrotation Xrotation Yrotation
                        JOINT LeftWrist
                        {
                            OFFSET 22.377386 0.000000 0.000000
                            CHANNELS 3 Zrotation Xrotation Yrotation
                            End Site
                            {
                                OFFSET 0.000000 -15.083334 0.000000
                            }
                        }
                    }
                }
            }
            JOINT RightCollar
            {
                OFFSET -0.000000 25.785578 0.000000
                CHANNELS 3 Zrotation Xrotation Yrotation
                JOINT RightShoulder
                {
                    OFFSET -19.000000 0.000000 0.000000
                    CHANNELS 3 Zrotation Xrotation Yrotation
                    JOINT RightElbow
                    {
                        OFFSET -29.227484 0.000000 0.000000
                        CHANNELS 3 Zrotation Xrotation Yrotation
                        JOINT RightWrist
                        {
                            OFFSET -22.377386 0.000000 0.000000
                            CHANNELS 3 Zrotation Xrotation Yrotation
                            End Site
                            {
                                OFFSET -0.000000 -15.083334 0.000000
                            }
                        }
                    }
                }
            }
        }
    JOINT LeftHip
    {
        OFFSET 12.066666 0.000000 0.000000
        CHANNELS 3 Zrotation Xrotation Yrotation
        JOINT LeftKnee
        {
            OFFSET -0.000000 -38.619030 0.000000
            CHANNELS 3 Zrotation Xrotation Yrotation
            JOINT LeftAnkle
            {
                OFFSET -0.000000 -42.566540 0.000000
                CHANNELS 3 Zrotation Xrotation Yrotation
                End Site
                {
                    OFFSET -0.000000 -5.027778 17.094444
                }
            }
        }
    }
    JOINT RightHip
    {
        OFFSET -12.066666 0.000000 0.000000
        CHANNELS 3 Zrotation Xrotation Yrotation
        JOINT RightKnee
        {
            OFFSET -0.000000 -38.619030 0.000000
            CHANNELS 3 Zrotation Xrotation Yrotation
            JOINT RightAnkle
            {
                OFFSET -0.000000 -42.566540 0.000000
                CHANNELS 3 Zrotation Xrotation Yrotation
                End Site
                {
                    OFFSET -0.000000 -5.027778 17.094444
                }
            }
        }
    }
}
MOTION
Frames:    14
Frame Time:    0.010000
-105.375206    89.490189    -32.139431    -3.029697    -4.218558    -1.208066    4.727964    16.218279    -4.529762    -16.247820    3.241472    6.865974    14.259744    -21.891739    9.685020    -9.954835    -0.544113    6.561705    -68.778671    1.732738    -5.990326    -35.790607    31.849222    -82.865768    126.699883    2.346803    5.251232    31.025343    1.579484    5.786764    22.958870    50.923618    16.493538    -3.943148    -1.946805    51.884048    -124.537987    -20.012817    -15.893601    -0.713539    10.710964    -1.031943    -3.851113    4.754255    12.258183    2.188217    -11.284559    32.554707    -8.131373    -20.272875    -1.027407    -0.376826    49.943264    14.053374    10.505112    -16.552086    -9.999455    
-105.455765    89.555000    -32.401188    -3.004065    -3.334377    -1.114324    4.872365    15.416073    -4.230728    -17.358276    2.280277    7.239472    15.222240    -19.454687    9.545241    -10.156058    -0.632170    7.615292    -69.156799    0.274378    -6.171112    -37.177731    33.193836    -81.594406    127.752274    3.338143    7.239293    30.543163    1.658150    6.481485    22.576160    51.744549    16.870192    -3.730690    -1.773069    51.679184    -127.705406    -19.099251    -17.752831    -0.465947    9.250029    -2.086994    -4.359109    5.376643    13.353518    2.390307    -11.390480    32.571323    -7.773338    -22.015844    -0.408875    -0.551802    50.487461    14.601768    8.397378    -16.637896    -9.891483    
-105.443642    89.617897    -32.181046    -3.149974    -3.472597    -0.585671    4.870068    15.519307    -4.548822    -16.962194    2.030081    6.988379    15.006854    -18.850933    9.169611    -9.772817    -0.633460    7.698430    -69.047050    1.312428    -6.502993    -37.422939    32.697941    -81.370201    126.864311    3.220844    5.975295    30.709496    1.648298    6.076205    22.398884    51.481575    17.114719    -4.087097    -2.083289    52.015919    -123.987144    -18.967463    -15.060555    -0.064364    9.288504    -2.303636    -4.600690    5.569481    13.469058    1.673818    -11.614540    32.272427    -7.485653    -21.453104    0.286530    -0.224061    49.192299    14.332748    8.153708    -18.207174    -8.080277    
-105.479881    89.671341    -32.161015    -3.222898    -3.265769    -0.321315    4.945893    15.255692    -4.629967    -17.007849    1.932768    6.969913    15.034932    -18.645254    9.161118    -9.686172    -0.649905    7.799318    -69.039955    1.273389    -6.571515    -37.910938    32.918308    -80.839417    126.928238    3.461824    6.128767    30.669905    1.663977    6.086145    22.463650    51.491405    17.033857    -4.068474    -2.013916    52.101673    -123.823578    -18.631165    -14.591966    0.196497    8.873928    -2.631542    -4.837754    5.830643    13.782059    1.528153    -11.682369    32.107841    -7.219889    -21.684488    0.837489    -0.149258    48.668484    14.423697    7.590981    -18.542118    -7.717024    
-105.526138    89.731018    -32.126625    -3.314313    -3.044354    -0.010572    5.036137    14.948281    -4.738334    -16.992855    1.931887    6.924861    15.015747    -18.414995    9.079911    -9.589054    -0.664833    7.809955    -68.996658    1.285107    -6.618006    -38.425617    33.093151    -80.299049    126.919754    3.682351    6.122090    30.643454    1.689296    6.065719    22.568031    51.440510    16.912977    -3.998509    -1.979787    52.188763    -123.665855    -18.325098    -13.999337    0.491016    8.427275    -2.935029    -5.075362    6.121947    14.019524    1.389414    -11.738107    31.951006    -6.900065    -21.881554    1.499069    -0.092745    47.963760    14.638613    7.040946    -18.887535    -7.421457    
-105.582138    89.793358    -32.077820    -3.420120    -2.806158    0.339197    5.131314    14.617142    -4.862698    -16.966042    1.922603    6.874331    15.000936    -18.179817    8.996521    -9.498539    -0.632434    7.830438    -68.922501    1.329850    -6.725449    -39.004574    33.282883    -79.657829    126.980721    3.905294    6.113526    30.620089    1.658683    6.053429    22.669102    51.437428    16.801342    -3.974851    -1.949276    52.263973    -123.468681    -18.031851    -13.383746    0.806663    7.950511    -3.199423    -5.300120    6.443275    14.129669    1.267421    -11.784041    31.841875    -6.527946    -22.038803    2.279150    -0.065328    47.070862    15.026870    6.539996    -19.255072    -7.246685    
-105.647430    89.854828    -32.014072    -3.534824    -2.552860    0.719645    5.221436    14.270584    -4.991722    -16.918949    1.901410    6.815821    14.988532    -17.942835    8.907349    -9.401217    -0.647273    7.851156    -68.844017    1.446318    -6.813286    -39.507950    33.392784    -79.155060    126.924706    4.135468    5.927872    30.593714    1.627758    6.040276    22.816637    51.434025    16.656393    -3.881279    -1.884304    52.337479    -123.358772    -17.786154    -12.713468    1.130491    7.451118    -3.415810    -5.502128    6.793049    14.075122    1.171345    -11.826165    31.813213    -6.107748    -22.146860    3.188052    -0.069691    45.988453    15.608725    6.109525    -19.651583    -7.239916    
-105.721024    89.912254    -31.933044    -3.651371    -2.294649    1.122563    5.298248    13.926281    -5.116129    -16.847525    1.861956    6.746675    14.978676    -17.710609    8.811761    -9.305145    -0.653986    7.862545    -68.747482    1.568071    -6.916769    -40.063393    33.556675    -78.551888    127.058876    4.366503    5.884135    30.559275    1.624121    6.022032    22.967699    51.408703    16.532488    -3.751715    -1.813523    52.407566    -123.264236    -17.602186    -12.007773    1.448374    6.948830    -3.579695    -5.672706    7.164667    13.839675    1.107301    -11.871017    31.881992    -5.648118    -22.185625    4.237224    -0.098130    44.717682    16.365608    5.751599    -20.073223    -7.428081    
-105.801582    89.962776    -31.831085    -3.761918    -2.047623    1.540893    5.357796    13.610463    -5.225023    -16.746595    1.799253    6.661121    14.964283    -17.488882    8.703869    -9.217146    -0.621874    7.850930    -68.643349    1.670618    -7.062299    -40.700111    33.751957    -77.857361    127.365997    4.520086    5.898867    30.507267    1.646781    5.992926    23.101351    51.355255    16.459694    -3.637876    -1.751408    52.478058    -123.166115    -17.462784    -11.311953    1.746352    6.472718    -3.690749    -5.803787    7.545280    13.429671    1.078197    -11.923031    32.046520    -5.162356    -22.127501    5.435247    -0.135567    43.259735    17.236868    5.466575    -20.503036    -7.801595    
-105.887459    90.003372    -31.704939    -3.857935    -1.826307    1.969618    5.400270    13.352668    -5.303485    -16.610176    1.700051    6.551423    14.931264    -17.277121    8.575552    -9.128585    -0.649635    7.806240    -68.559906    1.798137    -7.167447    -41.268631    33.879566    -77.303452    127.663521    4.563190    5.795650    30.425257    1.638209    5.946083    23.203348    51.315372    16.459236    -3.596359    -1.743269    52.554169    -123.070946    -17.341537    -10.679693    2.010889    6.051613    -3.757534    -5.888310    7.916221    12.874902    1.085696    -11.980583    32.288864    -4.669172    -21.948059    6.782341    -0.163549    41.617287    18.129803    5.270619    -20.912518    -8.308931    
-105.977043    90.030579    -31.552404    -3.930108    -1.638388    2.406246    5.426225    13.174051    -5.335221    -16.429731    1.559940    6.408125    14.859265    -17.078541    8.415092    -9.062800    -0.612437    7.712041    -68.468147    1.866755    -7.328712    -41.969643    34.093414    -76.529564    128.312103    4.464853    5.981386    30.294790    1.584938    5.870003    23.317122    51.280525    16.493332    -3.584078    -1.783628    52.650536    -122.998734    -17.256214    -10.090434    2.229472    5.706989    -3.795836    -5.921770    8.255952    12.219497    1.131709    -12.036406    32.581051    -4.191312    -21.633635    8.268096    -0.164522    39.792549    18.934288    5.198112    -21.256355    -8.867856    
-106.069145    90.040939    -31.371450    -3.969246    -1.486167    2.850963    5.435322    13.083178    -5.310008    -16.205576    1.375222    6.227126    14.736677    -16.894022    8.217606    -9.016920    -0.578058    7.564233    -68.397820    1.923781    -7.493324    -42.622513    34.231098    -75.868385    128.941757    4.189242    6.073206    30.098675    1.530529    5.761844    23.468040    51.191303    16.541161    -3.626369    -1.782585    52.781231    -122.863716    -17.206072    -9.566585    2.391460    5.454223    -3.824702    -5.901735    8.542409    11.510695    1.215438    -12.081379    32.892426    -3.752110    -21.180372    9.869560    -0.128223    37.788811    19.552065    5.287333    -21.470785    -9.400794    
-106.162056    90.031494    -31.160105    -3.967181    -1.369872    3.307289    5.423039    13.072778    -5.230103    -15.938956    1.165332    6.006840    14.556061    -16.732819    7.979655    -8.988062    -0.602496    7.352536    -68.343094    1.980305    -7.592983    -43.155735    34.305717    -75.360374    129.545151    3.787925    6.193945    29.839298    1.476577    5.619233    23.633135    51.037701    16.623241    -3.687948    -1.807108    52.950840    -122.773911    -17.170023    -9.129467    2.487819    5.305190    -3.868753    -5.827426    8.754644    10.796010    1.329827    -12.109202    33.195400    -3.375485    -20.592386    11.542349    -0.057318    35.618702    19.913574    5.565362    -21.482433    -9.851575    
-106.252754    90.000473    -30.917109    -3.918576    -1.290660    3.781918    5.383727    13.126089    -5.113043    -15.641781    0.951678    5.755023    14.324151    -16.601654    7.706758    -8.994632    -0.568790    7.082910    -68.269440    1.963211    -7.709864    -43.737614    34.429565    -74.719635    130.328613    3.279074    6.617146    29.531017    1.426845    5.447854    23.812357    50.824406    16.726107    -3.707728    -1.879944    53.161011    -122.723671    -17.170565    -8.739363    2.512117    5.269947    -3.961386    -5.699891    8.874954    10.124487    1.460792    -12.119615    33.467670    -3.082521    -19.880804    13.213982    0.029080    33.317337    19.978132    6.036053    -21.231220    -10.178664    
